<svg height="480pt" viewBox="-31 0 479 480" width="480pt" xmlns="http://www.w3.org/2000/svg" fill="#04b4e0"><path d="m376.5 80h-48v16h48c13.253906 0 24 10.746094 24 24v184h-384v-184c0-13.253906 10.746094-24 24-24h48v-16h-48c-22.082031.027344-39.972656 17.917969-40 40v224c.027344 22.082031 17.917969 39.972656 40 40h102.9375l-6 48h-16.9375c-8.835938 0-16 7.164062-16 16v16c0 8.835938 7.164062 16 16 16h176c8.835938 0 16-7.164062 16-16v-16c0-8.835938-7.164062-16-16-16h-16.9375l-6-48h102.9375c22.082031-.027344 39.972656-17.917969 40-40v-224c-.027344-22.082031-17.917969-39.972656-40-40zm-80 384h-176v-16h176zm-33.0625-32h-109.875l6-48h97.875zm113.0625-64h-336c-13.253906 0-24-10.746094-24-24v-24h384v24c0 13.253906-10.746094 24-24 24zm0 0"/><path d="m352.5 336h16v16h-16zm0 0"/><path d="m272.5 128c-13.253906 0-24 10.746094-24 24s10.746094 24 24 24 24-10.746094 24-24-10.746094-24-24-24zm0 32c-4.417969 0-8-3.582031-8-8s3.582031-8 8-8 8 3.582031 8 8-3.582031 8-8 8zm0 0"/><path d="m144.5 128c-13.253906 0-24 10.746094-24 24s10.746094 24 24 24 24-10.746094 24-24-10.746094-24-24-24zm0 32c-4.417969 0-8-3.582031-8-8s3.582031-8 8-8 8 3.582031 8 8-3.582031 8-8 8zm0 0"/><path d="m88.5 152c.113281 29.601562 23.242188 54.003906 52.792969 55.695312 29.554687 1.695313 55.320312-19.902343 58.816406-49.296874 5.394531 2.140624 11.402344 2.140624 16.796875 0 2.542969 22.492187 18.375 41.242187 40.121094 47.515624 21.746094 6.277344 45.132812-1.15625 59.265625-18.835937 14.132812-17.679687 16.234375-42.125 5.328125-61.957031l-23.890625-73.601563c-1.433594-5.660156-4.449219-10.792969-8.695313-14.800781-2.613281-2.351562-5.476562-4.417969-8.535156-6.152344v-6.566406c0-13.253906-10.746094-24-24-24h-8c-13.253906 0-24 10.746094-24 24v12.214844c-.390625.351562-.734375.746094-1.121094 1.105468-8.652344-7.09375-21.105468-7.09375-29.757812 0-.386719-.359374-.730469-.753906-1.121094-1.105468v-12.214844c0-13.253906-10.746094-24-24-24h-8c-13.253906 0-24 10.746094-24 24v6.574219c-3.0625 1.730469-5.925781 3.792969-8.535156 6.144531-4.152344 3.902344-7.121094 8.890625-8.570313 14.402344l-24 74c-4.53125 8.230468-6.90625 17.480468-6.894531 26.878906zm56 40c-22.089844 0-40-17.910156-40-40s17.910156-40 40-40 40 17.910156 40 40c-.027344 22.082031-17.917969 39.972656-40 40zm64-48c-4.417969 0-8-3.582031-8-8s3.582031-8 8-8 8 3.582031 8 8-3.582031 8-8 8zm64 48c-22.089844 0-40-17.910156-40-40s17.910156-40 40-40 40 17.910156 40 40c-.027344 22.082031-17.917969 39.972656-40 40zm24.726562-90.167969c-21.679687-10.792969-47.855468-6.324219-64.726562 11.054688v-56.886719c-.007812-1.550781-.164062-3.09375-.464844-4.617188 5.628906-6.675781 13.746094-10.761718 22.460938-11.308593 8.71875-.546875 17.28125 2.492187 23.699218 8.414062 2.089844 2.070313 3.542969 4.695313 4.183594 7.566407zm-56.726562-77.832031c0-4.417969 3.582031-8 8-8h8c4.417969 0 8 3.582031 8 8v.742188c-2.640625-.46875-5.316406-.714844-8-.742188-5.453125.019531-10.863281.964844-16 2.800781zm-32 24c4.417969 0 8 3.582031 8 8v57.472656c-5.152344-1.964844-10.847656-1.964844-16 0v-57.472656c0-4.417969 3.582031-8 8-8zm-56-24c0-4.417969 3.582031-8 8-8h8c4.417969 0 8 3.582031 8 8v2.800781c-5.136719-1.835937-10.546875-2.78125-16-2.800781-2.683594.027344-5.359375.273438-8 .742188zm-17.769531 31.648438c.65625-2.722657 2.066406-5.203126 4.074219-7.152344 6.417968-5.921875 14.980468-8.964844 23.695312-8.417969 8.71875.546875 16.832031 4.628906 22.464844 11.304687-.300782 1.523438-.457032 3.066407-.464844 4.617188v56.886719c-16.871094-17.382813-43.054688-21.851563-64.734375-11.046875zm0 0"/><path d="m216.5 240h16v16h-16zm0 0"/><path d="m248.5 240h16v16h-16zm0 0"/><path d="m184.5 240h16v16h-16zm0 0"/><path d="m152.5 240h16v16h-16zm0 0"/></svg>